<mxfile host="app.diagrams.net" modified="2024-05-15T03:27:36.976Z" agent="Mozilla/5.0 (Windows NT 10.0; Win64; x64) AppleWebKit/537.36 (KHTML, like Gecko) Chrome/124.0.0.0 Safari/537.36" etag="3mrteXcZo9nXKKeKzvDF" version="24.4.0" type="github">
  <diagram name="Page-1" id="2fSSAIrwWTEawEqIyAt-">
    <mxGraphModel dx="1195" dy="653" grid="0" gridSize="10" guides="1" tooltips="1" connect="1" arrows="1" fold="1" page="1" pageScale="1" pageWidth="850" pageHeight="1100" math="0" shadow="0">
      <root>
        <mxCell id="0" />
        <mxCell id="1" parent="0" />
        <mxCell id="Yb5xGOFoWmock8BhaPrS-1" value="" style="shape=cube;whiteSpace=wrap;html=1;boundedLbl=1;backgroundOutline=1;darkOpacity=0.05;darkOpacity2=0.1;flipH=1;" vertex="1" parent="1">
          <mxGeometry x="103.5" y="200" width="64" height="69" as="geometry" />
        </mxCell>
        <mxCell id="Yb5xGOFoWmock8BhaPrS-2" value="&lt;span style=&quot;font-size: 15px;&quot;&gt;输入特征&lt;/span&gt;" style="text;html=1;align=center;verticalAlign=middle;whiteSpace=wrap;rounded=0;fontStyle=1;fontSize=15;" vertex="1" parent="1">
          <mxGeometry x="96" y="269" width="67" height="28" as="geometry" />
        </mxCell>
        <mxCell id="Yb5xGOFoWmock8BhaPrS-35" value="" style="endArrow=classic;html=1;rounded=0;" edge="1" parent="1">
          <mxGeometry width="50" height="50" relative="1" as="geometry">
            <mxPoint x="172" y="234" as="sourcePoint" />
            <mxPoint x="211" y="234" as="targetPoint" />
          </mxGeometry>
        </mxCell>
        <mxCell id="Yb5xGOFoWmock8BhaPrS-57" value="卷积" style="text;html=1;align=center;verticalAlign=middle;resizable=0;points=[];autosize=1;strokeColor=none;fillColor=none;fontSize=12;" vertex="1" parent="1">
          <mxGeometry x="167.5" y="210" width="42" height="26" as="geometry" />
        </mxCell>
        <mxCell id="Yb5xGOFoWmock8BhaPrS-58" value="" style="shape=cube;whiteSpace=wrap;html=1;boundedLbl=1;backgroundOutline=1;darkOpacity=0.05;darkOpacity2=0.1;flipH=1;fillColor=#dae8fc;strokeColor=#6c8ebf;" vertex="1" parent="1">
          <mxGeometry x="216" y="200" width="64" height="69" as="geometry" />
        </mxCell>
        <mxCell id="Yb5xGOFoWmock8BhaPrS-64" value="" style="endArrow=classic;html=1;rounded=0;exitX=0.013;exitY=0.524;exitDx=0;exitDy=0;exitPerimeter=0;entryX=0;entryY=0.5;entryDx=0;entryDy=0;" edge="1" parent="1" source="Yb5xGOFoWmock8BhaPrS-58" target="Yb5xGOFoWmock8BhaPrS-89">
          <mxGeometry width="50" height="50" relative="1" as="geometry">
            <mxPoint x="290" y="234.16000000000003" as="sourcePoint" />
            <mxPoint x="443" y="234" as="targetPoint" />
          </mxGeometry>
        </mxCell>
        <mxCell id="Yb5xGOFoWmock8BhaPrS-65" value="" style="endArrow=classic;html=1;rounded=0;exitX=0.013;exitY=0.524;exitDx=0;exitDy=0;exitPerimeter=0;entryX=0;entryY=0.5;entryDx=0;entryDy=0;" edge="1" parent="1" source="Yb5xGOFoWmock8BhaPrS-58" target="Yb5xGOFoWmock8BhaPrS-84">
          <mxGeometry width="50" height="50" relative="1" as="geometry">
            <mxPoint x="281" y="237" as="sourcePoint" />
            <mxPoint x="324" y="195" as="targetPoint" />
          </mxGeometry>
        </mxCell>
        <mxCell id="Yb5xGOFoWmock8BhaPrS-66" value="" style="rounded=1;whiteSpace=wrap;html=1;strokeColor=#70ad47;strokeWidth=2;" vertex="1" parent="1">
          <mxGeometry x="137.88" y="446.5" width="562.5" height="82" as="geometry" />
        </mxCell>
        <mxCell id="Yb5xGOFoWmock8BhaPrS-68" value="" style="rounded=1;whiteSpace=wrap;html=1;strokeColor=#9933FF;strokeWidth=2;" vertex="1" parent="1">
          <mxGeometry x="378" y="322" width="302" height="111" as="geometry" />
        </mxCell>
        <mxCell id="Yb5xGOFoWmock8BhaPrS-69" value="" style="shape=cube;whiteSpace=wrap;html=1;boundedLbl=1;backgroundOutline=1;darkOpacity=0.05;darkOpacity2=0.1;size=8;fillColor=#dae8fc;strokeColor=#6c8ebf;flipH=1;" vertex="1" parent="1">
          <mxGeometry x="169.88" y="461" width="70" height="22" as="geometry" />
        </mxCell>
        <mxCell id="Yb5xGOFoWmock8BhaPrS-70" value="" style="shape=cube;whiteSpace=wrap;html=1;boundedLbl=1;backgroundOutline=1;darkOpacity=0.05;darkOpacity2=0.1;size=8;fillColor=#ffe6cc;strokeColor=#d79b00;flipH=1;" vertex="1" parent="1">
          <mxGeometry x="168.88" y="486" width="70" height="22" as="geometry" />
        </mxCell>
        <mxCell id="Yb5xGOFoWmock8BhaPrS-71" value="最大池化" style="text;html=1;align=center;verticalAlign=middle;whiteSpace=wrap;rounded=0;fontStyle=1" vertex="1" parent="1">
          <mxGeometry x="173.88" y="440" width="60" height="30" as="geometry" />
        </mxCell>
        <mxCell id="Yb5xGOFoWmock8BhaPrS-72" value="平均池化" style="text;html=1;align=center;verticalAlign=middle;whiteSpace=wrap;rounded=0;fontStyle=1" vertex="1" parent="1">
          <mxGeometry x="172.88" y="503" width="60" height="30" as="geometry" />
        </mxCell>
        <mxCell id="Yb5xGOFoWmock8BhaPrS-74" value="" style="shape=cube;whiteSpace=wrap;html=1;boundedLbl=1;backgroundOutline=1;darkOpacity=0.05;darkOpacity2=0.1;size=9;flipH=1;" vertex="1" parent="1">
          <mxGeometry x="286.88" y="458" width="23" height="60" as="geometry" />
        </mxCell>
        <mxCell id="Yb5xGOFoWmock8BhaPrS-75" value="" style="shape=cube;whiteSpace=wrap;html=1;boundedLbl=1;backgroundOutline=1;darkOpacity=0.05;darkOpacity2=0.1;size=9;flipH=1;" vertex="1" parent="1">
          <mxGeometry x="360.88" y="458" width="23" height="60" as="geometry" />
        </mxCell>
        <mxCell id="Yb5xGOFoWmock8BhaPrS-76" value="" style="shape=cube;whiteSpace=wrap;html=1;boundedLbl=1;backgroundOutline=1;darkOpacity=0.05;darkOpacity2=0.1;size=9;flipH=1;" vertex="1" parent="1">
          <mxGeometry x="323.88" y="467" width="23" height="43" as="geometry" />
        </mxCell>
        <mxCell id="Yb5xGOFoWmock8BhaPrS-77" value="" style="endArrow=none;html=1;rounded=0;entryX=0;entryY=0;entryDx=14;entryDy=0;entryPerimeter=0;" edge="1" parent="1" target="Yb5xGOFoWmock8BhaPrS-76">
          <mxGeometry width="50" height="50" relative="1" as="geometry">
            <mxPoint x="306.38" y="457" as="sourcePoint" />
            <mxPoint x="323.88" y="467" as="targetPoint" />
          </mxGeometry>
        </mxCell>
        <mxCell id="Yb5xGOFoWmock8BhaPrS-78" value="" style="endArrow=none;html=1;rounded=0;entryX=0;entryY=0;entryDx=14;entryDy=0;entryPerimeter=0;exitX=0;exitY=0;exitDx=7;exitDy=0;exitPerimeter=0;" edge="1" parent="1" source="Yb5xGOFoWmock8BhaPrS-76" target="Yb5xGOFoWmock8BhaPrS-75">
          <mxGeometry width="50" height="50" relative="1" as="geometry">
            <mxPoint x="330.88" y="461" as="sourcePoint" />
            <mxPoint x="352.88" y="454" as="targetPoint" />
          </mxGeometry>
        </mxCell>
        <mxCell id="Yb5xGOFoWmock8BhaPrS-79" value="" style="endArrow=none;html=1;rounded=0;entryX=0;entryY=0;entryDx=16;entryDy=43;entryPerimeter=0;" edge="1" parent="1" target="Yb5xGOFoWmock8BhaPrS-76">
          <mxGeometry width="50" height="50" relative="1" as="geometry">
            <mxPoint x="292.88" y="518" as="sourcePoint" />
            <mxPoint x="317.88" y="527" as="targetPoint" />
          </mxGeometry>
        </mxCell>
        <mxCell id="Yb5xGOFoWmock8BhaPrS-80" value="" style="endArrow=none;html=1;rounded=0;entryX=1;entryY=1;entryDx=0;entryDy=0;entryPerimeter=0;" edge="1" parent="1" target="Yb5xGOFoWmock8BhaPrS-75">
          <mxGeometry width="50" height="50" relative="1" as="geometry">
            <mxPoint x="330.38" y="509" as="sourcePoint" />
            <mxPoint x="344.88" y="500" as="targetPoint" />
          </mxGeometry>
        </mxCell>
        <mxCell id="Yb5xGOFoWmock8BhaPrS-81" value="" style="endArrow=classic;html=1;rounded=0;edgeStyle=orthogonalEdgeStyle;curved=1;" edge="1" parent="1">
          <mxGeometry width="50" height="50" relative="1" as="geometry">
            <mxPoint x="246.38" y="460" as="sourcePoint" />
            <mxPoint x="278.88" y="478" as="targetPoint" />
            <Array as="points">
              <mxPoint x="260.38" y="455" />
              <mxPoint x="260.38" y="478" />
            </Array>
          </mxGeometry>
        </mxCell>
        <mxCell id="Yb5xGOFoWmock8BhaPrS-83" value="" style="endArrow=classic;html=1;rounded=0;edgeStyle=orthogonalEdgeStyle;curved=1;" edge="1" parent="1">
          <mxGeometry width="50" height="50" relative="1" as="geometry">
            <mxPoint x="247.38" y="507" as="sourcePoint" />
            <mxPoint x="279.88" y="489" as="targetPoint" />
            <Array as="points">
              <mxPoint x="261.38" y="512" />
              <mxPoint x="261.38" y="489" />
            </Array>
          </mxGeometry>
        </mxCell>
        <mxCell id="Yb5xGOFoWmock8BhaPrS-106" style="rounded=0;orthogonalLoop=1;jettySize=auto;html=1;exitX=0.5;exitY=1;exitDx=0;exitDy=0;entryX=0.25;entryY=0;entryDx=0;entryDy=0;dashed=1;endArrow=none;endFill=0;edgeStyle=elbowEdgeStyle;elbow=vertical;strokeWidth=2;" edge="1" parent="1" source="Yb5xGOFoWmock8BhaPrS-84" target="Yb5xGOFoWmock8BhaPrS-66">
          <mxGeometry relative="1" as="geometry" />
        </mxCell>
        <mxCell id="Yb5xGOFoWmock8BhaPrS-84" value="" style="rounded=1;whiteSpace=wrap;html=1;strokeColor=#70ad47;strokeWidth=2;" vertex="1" parent="1">
          <mxGeometry x="313" y="185" width="100" height="41" as="geometry" />
        </mxCell>
        <mxCell id="Yb5xGOFoWmock8BhaPrS-85" value="通道注意力" style="text;html=1;align=center;verticalAlign=middle;whiteSpace=wrap;rounded=0;fontSize=15;fontStyle=1" vertex="1" parent="1">
          <mxGeometry x="320.5" y="154" width="88" height="23" as="geometry" />
        </mxCell>
        <mxCell id="Yb5xGOFoWmock8BhaPrS-88" value="" style="shape=cube;whiteSpace=wrap;html=1;boundedLbl=1;backgroundOutline=1;darkOpacity=0.05;darkOpacity2=0.1;flipV=0;flipH=1;size=11;fillColor=#d5e8d4;strokeColor=#82b366;gradientColor=#97d077;" vertex="1" parent="1">
          <mxGeometry x="328.5" y="192" width="67" height="27" as="geometry" />
        </mxCell>
        <mxCell id="Yb5xGOFoWmock8BhaPrS-89" value="" style="shape=sumEllipse;perimeter=ellipsePerimeter;whiteSpace=wrap;html=1;backgroundOutline=1;fontStyle=0;strokeWidth=2;" vertex="1" parent="1">
          <mxGeometry x="439.99999999999994" y="222" width="25" height="25" as="geometry" />
        </mxCell>
        <mxCell id="Yb5xGOFoWmock8BhaPrS-90" value="" style="endArrow=classic;html=1;rounded=0;exitX=1;exitY=0.5;exitDx=0;exitDy=0;entryX=0;entryY=0;entryDx=0;entryDy=0;" edge="1" parent="1" source="Yb5xGOFoWmock8BhaPrS-84" target="Yb5xGOFoWmock8BhaPrS-89">
          <mxGeometry width="50" height="50" relative="1" as="geometry">
            <mxPoint x="431" y="191.00000000000003" as="sourcePoint" />
            <mxPoint x="449" y="219" as="targetPoint" />
          </mxGeometry>
        </mxCell>
        <mxCell id="Yb5xGOFoWmock8BhaPrS-91" value="" style="endArrow=classic;html=1;rounded=0;entryX=0;entryY=0.5;entryDx=0;entryDy=0;exitX=1;exitY=0.5;exitDx=0;exitDy=0;" edge="1" parent="1" source="Yb5xGOFoWmock8BhaPrS-89" target="Yb5xGOFoWmock8BhaPrS-94">
          <mxGeometry width="50" height="50" relative="1" as="geometry">
            <mxPoint x="474" y="234" as="sourcePoint" />
            <mxPoint x="658" y="234" as="targetPoint" />
          </mxGeometry>
        </mxCell>
        <mxCell id="Yb5xGOFoWmock8BhaPrS-92" value="" style="endArrow=classic;html=1;rounded=0;exitX=1;exitY=0.5;exitDx=0;exitDy=0;entryX=0.5;entryY=1;entryDx=0;entryDy=0;" edge="1" parent="1" source="Yb5xGOFoWmock8BhaPrS-89" target="Yb5xGOFoWmock8BhaPrS-93">
          <mxGeometry width="50" height="50" relative="1" as="geometry">
            <mxPoint x="475" y="235" as="sourcePoint" />
            <mxPoint x="520" y="194" as="targetPoint" />
          </mxGeometry>
        </mxCell>
        <mxCell id="Yb5xGOFoWmock8BhaPrS-133" style="edgeStyle=orthogonalEdgeStyle;rounded=0;orthogonalLoop=1;jettySize=auto;html=1;entryX=0.5;entryY=0;entryDx=0;entryDy=0;dashed=1;strokeWidth=2;endArrow=none;endFill=0;" edge="1" parent="1" source="Yb5xGOFoWmock8BhaPrS-93" target="Yb5xGOFoWmock8BhaPrS-68">
          <mxGeometry relative="1" as="geometry" />
        </mxCell>
        <mxCell id="Yb5xGOFoWmock8BhaPrS-93" value="" style="rounded=1;whiteSpace=wrap;html=1;strokeColor=#9933FF;strokeWidth=2;direction=south;" vertex="1" parent="1">
          <mxGeometry x="502" y="129" width="54" height="100" as="geometry" />
        </mxCell>
        <mxCell id="Yb5xGOFoWmock8BhaPrS-101" style="edgeStyle=orthogonalEdgeStyle;rounded=0;orthogonalLoop=1;jettySize=auto;html=1;exitX=1;exitY=0.5;exitDx=0;exitDy=0;entryX=0;entryY=0.5;entryDx=0;entryDy=0;" edge="1" parent="1" source="Yb5xGOFoWmock8BhaPrS-94" target="Yb5xGOFoWmock8BhaPrS-100">
          <mxGeometry relative="1" as="geometry" />
        </mxCell>
        <mxCell id="Yb5xGOFoWmock8BhaPrS-94" value="" style="shape=sumEllipse;perimeter=ellipsePerimeter;whiteSpace=wrap;html=1;backgroundOutline=1;fontStyle=0;strokeWidth=2;" vertex="1" parent="1">
          <mxGeometry x="590" y="222" width="25" height="25" as="geometry" />
        </mxCell>
        <mxCell id="Yb5xGOFoWmock8BhaPrS-95" value="" style="endArrow=classic;html=1;rounded=0;exitX=0.5;exitY=0;exitDx=0;exitDy=0;entryX=0;entryY=0;entryDx=0;entryDy=0;" edge="1" parent="1" source="Yb5xGOFoWmock8BhaPrS-93" target="Yb5xGOFoWmock8BhaPrS-94">
          <mxGeometry width="50" height="50" relative="1" as="geometry">
            <mxPoint x="649" y="187.00000000000003" as="sourcePoint" />
            <mxPoint x="657" y="220" as="targetPoint" />
          </mxGeometry>
        </mxCell>
        <mxCell id="Yb5xGOFoWmock8BhaPrS-97" value="空间注意力" style="text;html=1;align=center;verticalAlign=middle;whiteSpace=wrap;rounded=0;fontSize=15;fontStyle=1" vertex="1" parent="1">
          <mxGeometry x="485" y="103" width="88" height="23" as="geometry" />
        </mxCell>
        <mxCell id="Yb5xGOFoWmock8BhaPrS-98" value="" style="shape=cube;whiteSpace=wrap;html=1;boundedLbl=1;backgroundOutline=1;darkOpacity=0.05;darkOpacity2=0.1;flipV=0;flipH=1;size=19;fillColor=#e6d0de;strokeColor=#996185;gradientColor=#d5739d;" vertex="1" parent="1">
          <mxGeometry x="509" y="134.5" width="34" height="89" as="geometry" />
        </mxCell>
        <mxCell id="Yb5xGOFoWmock8BhaPrS-100" value="" style="shape=orEllipse;perimeter=ellipsePerimeter;whiteSpace=wrap;html=1;backgroundOutline=1;strokeWidth=2;" vertex="1" parent="1">
          <mxGeometry x="642" y="222" width="25" height="25" as="geometry" />
        </mxCell>
        <mxCell id="Yb5xGOFoWmock8BhaPrS-103" value="" style="shape=cube;whiteSpace=wrap;html=1;boundedLbl=1;backgroundOutline=1;darkOpacity=0.05;darkOpacity2=0.1;flipH=1;" vertex="1" parent="1">
          <mxGeometry x="712" y="196" width="64" height="69" as="geometry" />
        </mxCell>
        <mxCell id="Yb5xGOFoWmock8BhaPrS-104" value="&lt;span style=&quot;font-size: 15px;&quot;&gt;输出特征&lt;/span&gt;" style="text;html=1;align=center;verticalAlign=middle;whiteSpace=wrap;rounded=0;fontStyle=1;fontSize=15;" vertex="1" parent="1">
          <mxGeometry x="703" y="265" width="67" height="28" as="geometry" />
        </mxCell>
        <mxCell id="Yb5xGOFoWmock8BhaPrS-105" value="" style="endArrow=classic;html=1;rounded=0;" edge="1" parent="1">
          <mxGeometry width="50" height="50" relative="1" as="geometry">
            <mxPoint x="671" y="234.08" as="sourcePoint" />
            <mxPoint x="710" y="234.08" as="targetPoint" />
          </mxGeometry>
        </mxCell>
        <mxCell id="Yb5xGOFoWmock8BhaPrS-107" value="" style="endArrow=classic;html=1;rounded=0;edgeStyle=orthogonalEdgeStyle;curved=1;" edge="1" parent="1">
          <mxGeometry width="50" height="50" relative="1" as="geometry">
            <mxPoint x="396.713333333333" y="481.0000000000002" as="sourcePoint" />
            <mxPoint x="429.213333333333" y="463.0000000000002" as="targetPoint" />
            <Array as="points">
              <mxPoint x="410.713333333333" y="486.0000000000002" />
              <mxPoint x="410.713333333333" y="463.0000000000002" />
            </Array>
          </mxGeometry>
        </mxCell>
        <mxCell id="Yb5xGOFoWmock8BhaPrS-108" value="" style="endArrow=classic;html=1;rounded=0;edgeStyle=orthogonalEdgeStyle;curved=1;" edge="1" parent="1">
          <mxGeometry width="50" height="50" relative="1" as="geometry">
            <mxPoint x="396.63" y="497" as="sourcePoint" />
            <mxPoint x="429.13" y="515" as="targetPoint" />
            <Array as="points">
              <mxPoint x="410.63" y="492" />
              <mxPoint x="410.63" y="515" />
            </Array>
          </mxGeometry>
        </mxCell>
        <mxCell id="Yb5xGOFoWmock8BhaPrS-109" value="" style="shape=cube;whiteSpace=wrap;html=1;boundedLbl=1;backgroundOutline=1;darkOpacity=0.05;darkOpacity2=0.1;size=8;fillColor=#dae8fc;strokeColor=#6c8ebf;flipH=1;" vertex="1" parent="1">
          <mxGeometry x="437.88" y="458" width="70" height="22" as="geometry" />
        </mxCell>
        <mxCell id="Yb5xGOFoWmock8BhaPrS-110" value="" style="shape=cube;whiteSpace=wrap;html=1;boundedLbl=1;backgroundOutline=1;darkOpacity=0.05;darkOpacity2=0.1;size=8;fillColor=#ffe6cc;strokeColor=#d79b00;flipH=1;" vertex="1" parent="1">
          <mxGeometry x="437.88" y="498" width="70" height="23" as="geometry" />
        </mxCell>
        <mxCell id="Yb5xGOFoWmock8BhaPrS-111" value="" style="shape=orEllipse;perimeter=ellipsePerimeter;whiteSpace=wrap;html=1;backgroundOutline=1;strokeWidth=2;" vertex="1" parent="1">
          <mxGeometry x="512.88" y="476" width="25" height="25" as="geometry" />
        </mxCell>
        <mxCell id="Yb5xGOFoWmock8BhaPrS-112" value="" style="shape=image;verticalLabelPosition=bottom;labelBackgroundColor=default;verticalAlign=top;aspect=fixed;imageAspect=0;image=data:image/png,iVBORw0KGgoAAAANSUhEUgAAACUAAAAmCAYAAABDClKtAAADDUlEQVRYCc2Wwa3CMBBEXQJXbpyRkCiBEiiBEuiAEiiBEiiBEiiBEighXy/SWMMSO7G5fEvBgXh33+6OTdLwD0dqZXo8HsPlchkOh8Ow3++HzWYzrFar8eL+eDwO5/N5YF3vWAT1fr9HECBSSk0XkK/Xq4mvCiUYKlGDmXuOLdVbCleEej6fY2siDC1Se1gDuAZB7/f7cL1ex/ZGW77zfG5MQqGHmD0aAqJlAHk6nb6qjCZr4wuKLB2I+9vtVvMx+4xkoh7RWml8QGHsQDhaqoNSAP89Vq2UbIYiOHqRDgByvbjzX+4j2JTGMpQvBu4XIGzjeUaS6JJrvV7n5OlMHCMUDlQhFvUefMAgYq+4/MZ5t9vlmFH4IxT0MooLYhal7wAhXvmZm2MhXLsJccsBVeppWysQ8RieBLteI1EZQXEo9gz3IV/MJEkXCI5muXRPHESu9a6t5P3v0RJVwqGcC4bMl1TdbdXCJGdO2lItgsuHZm/FnC/f9bLLUJS5Z7hToFqPEw5QJaNNlqF69eRixTnfW4brSrY/Q7kmgWpNznf/F5T62ZIlwlTpNU/9bdR8OpQklCulftYcxGdeekFpB8W1pe9+iKJPRoZS6UrGU79jIxjmnh3sQlfrM1SrQ3cmsJ7E/OBVtz4Oz6Wlp+R+6Amq5/D1jSL75OdMTewIkkziG6SAeqrkIvdOJRcr1BoAEIgdUQIRUO8LobdOeiJ+4v/JS6hX1Kn2CMJngJa2XQkzY+Mx1LoRig8Xrco4Vx3AaP2SP12H0b3LJrY+vw57tWot4xllRw+9A+2q2hQh+spQlE8Lmbfb7aglsqDfOIrGPVBo2NvmWpK/DMUP3kbApgxk2DOTmAOV2v8BRSDvNWC9O8uh0R0Jeidqfr+gcBYd/FI1ZBE3Dbqs7dhJKMBcjJ4hwL59vSK653npoMV+bscWoQiAsMnKofyeHctGoOXasa6ZuJZEl4wqlBywY/zI8GBz90ACM1cdxWJeBCUD2kKAWvWAJAHaRKVbYBSnCUpGmglIYGCZEW8PhPxp/gPHiqlT1qijUgAAAABJRU5ErkJggg==;" vertex="1" parent="1">
          <mxGeometry x="540.88" y="474" width="27.26" height="28" as="geometry" />
        </mxCell>
        <mxCell id="Yb5xGOFoWmock8BhaPrS-113" value="" style="endArrow=classic;html=1;rounded=0;" edge="1" parent="1">
          <mxGeometry width="50" height="50" relative="1" as="geometry">
            <mxPoint x="572.88" y="487.58" as="sourcePoint" />
            <mxPoint x="611.88" y="487.58" as="targetPoint" />
          </mxGeometry>
        </mxCell>
        <mxCell id="Yb5xGOFoWmock8BhaPrS-114" value="" style="shape=cube;whiteSpace=wrap;html=1;boundedLbl=1;backgroundOutline=1;darkOpacity=0.05;darkOpacity2=0.1;flipV=0;flipH=1;size=11;fillColor=#d5e8d4;strokeColor=#82b366;gradientColor=#97d077;" vertex="1" parent="1">
          <mxGeometry x="619.88" y="474" width="67" height="27" as="geometry" />
        </mxCell>
        <mxCell id="Yb5xGOFoWmock8BhaPrS-115" value="" style="shape=cube;whiteSpace=wrap;html=1;boundedLbl=1;backgroundOutline=1;darkOpacity=0.05;darkOpacity2=0.1;flipV=0;flipH=1;size=19;fillColor=#dae8fc;strokeColor=#6c8ebf;gradientColor=#7ea6e0;" vertex="1" parent="1">
          <mxGeometry x="408.13" y="329" width="34" height="89" as="geometry" />
        </mxCell>
        <mxCell id="Yb5xGOFoWmock8BhaPrS-117" value="" style="shape=cube;whiteSpace=wrap;html=1;boundedLbl=1;backgroundOutline=1;darkOpacity=0.05;darkOpacity2=0.1;flipV=0;flipH=1;size=19;fillColor=#fff2cc;strokeColor=#d6b656;gradientColor=#ffd966;" vertex="1" parent="1">
          <mxGeometry x="424.13" y="329" width="34" height="89" as="geometry" />
        </mxCell>
        <mxCell id="Yb5xGOFoWmock8BhaPrS-118" value="&lt;b style=&quot;font-size: 11px;&quot;&gt;[最大池化,平均池化]&lt;/b&gt;" style="text;html=1;align=center;verticalAlign=middle;whiteSpace=wrap;rounded=0;fontSize=11;" vertex="1" parent="1">
          <mxGeometry x="371.63" y="410" width="130" height="30" as="geometry" />
        </mxCell>
        <mxCell id="Yb5xGOFoWmock8BhaPrS-121" value="" style="shape=cube;whiteSpace=wrap;html=1;boundedLbl=1;backgroundOutline=1;darkOpacity=0.05;darkOpacity2=0.1;flipV=0;flipH=1;size=19;" vertex="1" parent="1">
          <mxGeometry x="508.13" y="329" width="34" height="89" as="geometry" />
        </mxCell>
        <mxCell id="Yb5xGOFoWmock8BhaPrS-123" value="" style="endArrow=classic;html=1;rounded=0;" edge="1" parent="1">
          <mxGeometry width="50" height="50" relative="1" as="geometry">
            <mxPoint x="465.13" y="378" as="sourcePoint" />
            <mxPoint x="504.13" y="378" as="targetPoint" />
          </mxGeometry>
        </mxCell>
        <mxCell id="Yb5xGOFoWmock8BhaPrS-124" value="卷积" style="text;html=1;align=center;verticalAlign=middle;resizable=0;points=[];autosize=1;strokeColor=none;fillColor=none;fontSize=12;" vertex="1" parent="1">
          <mxGeometry x="462.13" y="353" width="42" height="26" as="geometry" />
        </mxCell>
        <mxCell id="Yb5xGOFoWmock8BhaPrS-127" value="" style="endArrow=classic;html=1;rounded=0;" edge="1" parent="1">
          <mxGeometry width="50" height="50" relative="1" as="geometry">
            <mxPoint x="544.13" y="378" as="sourcePoint" />
            <mxPoint x="571.13" y="378" as="targetPoint" />
          </mxGeometry>
        </mxCell>
        <mxCell id="Yb5xGOFoWmock8BhaPrS-128" value="" style="shape=image;verticalLabelPosition=bottom;labelBackgroundColor=default;verticalAlign=top;aspect=fixed;imageAspect=0;image=data:image/png,iVBORw0KGgoAAAANSUhEUgAAACUAAAAmCAYAAABDClKtAAADDUlEQVRYCc2Wwa3CMBBEXQJXbpyRkCiBEiiBEuiAEiiBEiiBEiiBEighXy/SWMMSO7G5fEvBgXh33+6OTdLwD0dqZXo8HsPlchkOh8Ow3++HzWYzrFar8eL+eDwO5/N5YF3vWAT1fr9HECBSSk0XkK/Xq4mvCiUYKlGDmXuOLdVbCleEej6fY2siDC1Se1gDuAZB7/f7cL1ex/ZGW77zfG5MQqGHmD0aAqJlAHk6nb6qjCZr4wuKLB2I+9vtVvMx+4xkoh7RWml8QGHsQDhaqoNSAP89Vq2UbIYiOHqRDgByvbjzX+4j2JTGMpQvBu4XIGzjeUaS6JJrvV7n5OlMHCMUDlQhFvUefMAgYq+4/MZ5t9vlmFH4IxT0MooLYhal7wAhXvmZm2MhXLsJccsBVeppWysQ8RieBLteI1EZQXEo9gz3IV/MJEkXCI5muXRPHESu9a6t5P3v0RJVwqGcC4bMl1TdbdXCJGdO2lItgsuHZm/FnC/f9bLLUJS5Z7hToFqPEw5QJaNNlqF69eRixTnfW4brSrY/Q7kmgWpNznf/F5T62ZIlwlTpNU/9bdR8OpQklCulftYcxGdeekFpB8W1pe9+iKJPRoZS6UrGU79jIxjmnh3sQlfrM1SrQ3cmsJ7E/OBVtz4Oz6Wlp+R+6Amq5/D1jSL75OdMTewIkkziG6SAeqrkIvdOJRcr1BoAEIgdUQIRUO8LobdOeiJ+4v/JS6hX1Kn2CMJngJa2XQkzY+Mx1LoRig8Xrco4Vx3AaP2SP12H0b3LJrY+vw57tWot4xllRw+9A+2q2hQh+spQlE8Lmbfb7aglsqDfOIrGPVBo2NvmWpK/DMUP3kbApgxk2DOTmAOV2v8BRSDvNWC9O8uh0R0Jeidqfr+gcBYd/FI1ZBE3Dbqs7dhJKMBcjJ4hwL59vSK653npoMV+bscWoQiAsMnKofyeHctGoOXasa6ZuJZEl4wqlBywY/zI8GBz90ACM1cdxWJeBCUD2kKAWvWAJAHaRKVbYBSnCUpGmglIYGCZEW8PhPxp/gPHiqlT1qijUgAAAABJRU5ErkJggg==;" vertex="1" parent="1">
          <mxGeometry x="573.63" y="366" width="27.26" height="28" as="geometry" />
        </mxCell>
        <mxCell id="Yb5xGOFoWmock8BhaPrS-129" value="" style="endArrow=classic;html=1;rounded=0;" edge="1" parent="1">
          <mxGeometry width="50" height="50" relative="1" as="geometry">
            <mxPoint x="602.13" y="378" as="sourcePoint" />
            <mxPoint x="629.13" y="378" as="targetPoint" />
          </mxGeometry>
        </mxCell>
        <mxCell id="Yb5xGOFoWmock8BhaPrS-130" value="" style="shape=cube;whiteSpace=wrap;html=1;boundedLbl=1;backgroundOutline=1;darkOpacity=0.05;darkOpacity2=0.1;flipV=0;flipH=1;size=19;fillColor=#e6d0de;gradientColor=#d5739d;strokeColor=#996185;" vertex="1" parent="1">
          <mxGeometry x="633.13" y="329" width="34" height="89" as="geometry" />
        </mxCell>
      </root>
    </mxGraphModel>
  </diagram>
</mxfile>
